<svg width="38" height="39" viewBox="0 0 38 39" fill="none" xmlns="http://www.w3.org/2000/svg">
<circle cx="19" cy="19.5" r="19" fill="#9D2B2F"/>
<path d="M19 9.5C17.6868 9.5 16.3864 9.75866 15.1732 10.2612C13.9599 10.7638 12.8575 11.5003 11.9289 12.4289C10.0536 14.3043 9 16.8478 9 19.5C9 22.1522 10.0536 24.6957 11.9289 26.5711C12.8575 27.4997 13.9599 28.2362 15.1732 28.7388C16.3864 29.2413 17.6868 29.5 19 29.5C21.6522 29.5 24.1957 28.4464 26.0711 26.5711C27.9464 24.6957 29 22.1522 29 19.5C29 18.1868 28.7413 16.8864 28.2388 15.6732C27.7362 14.4599 26.9997 13.3575 26.0711 12.4289C25.1425 11.5003 24.0401 10.7638 22.8268 10.2612C21.6136 9.75866 20.3132 9.5 19 9.5ZM23.2 23.7L18 20.5V14.5H19.5V19.7L24 22.4L23.2 23.7Z" fill="white"/>
</svg>