<svg width="38" height="39" viewBox="0 0 38 39" fill="none" xmlns="http://www.w3.org/2000/svg">
<circle cx="19" cy="19.5" r="19" fill="#9D2B2F"/>
<path d="M16.8125 14.447L15.2328 11.7586C14.9241 11.2331 14.2541 11.0536 13.7528 11.4003C12.7665 12.0823 11.2966 13.2789 10.9309 14.5582C10.3633 16.544 12.4096 21.2734 15.1916 24.0555C17.9737 26.8376 22.4618 28.6424 24.4478 28.075C25.727 27.7095 26.9238 26.2402 27.6061 25.2541C27.953 24.7528 27.7735 24.0826 27.2479 23.7738L24.5595 22.1942C24.0494 21.8945 23.3944 22.0425 23.0627 22.5323L22.3236 23.6237C22.0037 24.096 21.3828 24.2476 20.9049 23.936C20.1352 23.4342 18.9373 22.5645 17.6894 21.3166C16.4416 20.0688 15.572 18.871 15.0701 18.1013C14.7585 17.6234 14.9102 17.0022 15.3828 16.6824L16.474 15.944C16.9641 15.6124 17.1122 14.9572 16.8125 14.447Z" fill="white"/>
</svg>