<svg width="38" height="39" viewBox="0 0 38 39" fill="none" xmlns="http://www.w3.org/2000/svg">
<circle cx="19" cy="19.5" r="19" fill="#9D2B2F"/>
<path d="M19 19C18.337 19 17.7011 18.7366 17.2322 18.2678C16.7634 17.7989 16.5 17.163 16.5 16.5C16.5 15.837 16.7634 15.2011 17.2322 14.7322C17.7011 14.2634 18.337 14 19 14C19.663 14 20.2989 14.2634 20.7678 14.7322C21.2366 15.2011 21.5 15.837 21.5 16.5C21.5 16.8283 21.4353 17.1534 21.3097 17.4567C21.1841 17.76 20.9999 18.0356 20.7678 18.2678C20.5356 18.4999 20.26 18.6841 19.9567 18.8097C19.6534 18.9353 19.3283 19 19 19ZM19 9.5C17.1435 9.5 15.363 10.2375 14.0503 11.5503C12.7375 12.863 12 14.6435 12 16.5C12 21.75 19 29.5 19 29.5C19 29.5 26 21.75 26 16.5C26 14.6435 25.2625 12.863 23.9497 11.5503C22.637 10.2375 20.8565 9.5 19 9.5Z" fill="white"/>
</svg>