<svg width="32" height="33" viewBox="0 0 32 33" fill="none" xmlns="http://www.w3.org/2000/svg">
<circle cx="16" cy="16.5" r="16" fill="white"/>
<path d="M9.2386 8.83363C9.25347 8.64521 9.33745 8.47002 9.47308 8.34449C9.60871 8.21896 9.78555 8.15275 9.96682 8.15963C10.1481 8.16651 10.3198 8.24596 10.4463 8.38144C10.5728 8.51692 10.6444 8.69802 10.6461 8.88706V12.6391C10.6461 12.7775 10.6988 12.9103 10.7927 13.0081C10.8866 13.106 11.0139 13.161 11.1467 13.161C11.2795 13.161 11.4068 13.106 11.5007 13.0081C11.5946 12.9103 11.6474 12.7775 11.6474 12.6391V8.77852C11.6474 8.61245 11.7107 8.45318 11.8233 8.33575C11.936 8.21832 12.0888 8.15234 12.2482 8.15234C12.4075 8.15234 12.5603 8.21832 12.673 8.33575C12.7857 8.45318 12.849 8.61245 12.849 8.77852V12.6391C12.849 12.7775 12.9017 12.9103 12.9956 13.0081C13.0895 13.106 13.2168 13.161 13.3496 13.161C13.4824 13.161 13.6097 13.106 13.7036 13.0081C13.7975 12.9103 13.8503 12.7775 13.8503 12.6391V8.88706C13.8519 8.69802 13.9235 8.51692 14.05 8.38144C14.1765 8.24596 14.3482 8.16651 14.5295 8.15963C14.7108 8.15275 14.8876 8.21896 15.0232 8.34449C15.1589 8.47002 15.2429 8.64521 15.2577 8.83363C15.2922 9.34459 15.4524 11.8009 15.4524 13.1618C15.4524 14.2889 14.9157 15.2858 14.097 15.8894C13.924 16.0172 13.8823 16.1524 13.8863 16.2209C13.9848 17.7888 14.2508 22.0803 14.2508 22.7607C14.2508 23.3143 14.0398 23.8452 13.6642 24.2366C13.2887 24.6281 12.7793 24.848 12.2482 24.848C11.717 24.848 11.2077 24.6281 10.8321 24.2366C10.4565 23.8452 10.2455 23.3143 10.2455 22.7607C10.2455 22.0794 10.5115 17.7888 10.61 16.2209C10.614 16.1524 10.5724 16.0172 10.3993 15.8894C9.98046 15.581 9.63875 15.1723 9.40289 14.6977C9.16704 14.223 9.04394 13.6963 9.04395 13.1618C9.04395 11.8009 9.20416 9.34459 9.2386 8.83363ZM16.654 12.9531C16.654 11.6798 17.1392 10.4588 18.003 9.55844C18.8668 8.65813 20.0384 8.15234 21.26 8.15234C21.4194 8.15234 21.5722 8.21832 21.6848 8.33575C21.7975 8.45318 21.8608 8.61245 21.8608 8.77852V15.8752C21.8608 16.1407 21.9457 17.4574 22.041 18.916L22.0451 18.9853C22.1492 20.5783 22.2613 22.3107 22.2613 22.7607C22.2613 23.3143 22.0503 23.8452 21.6748 24.2366C21.2992 24.6281 20.7898 24.848 20.2587 24.848C19.7276 24.848 19.2182 24.6281 18.8426 24.2366C18.4671 23.8452 18.2561 23.3143 18.2561 22.7607C18.2561 22.3316 18.3586 20.5808 18.4579 18.9753C18.5076 18.1646 18.5581 17.3789 18.5957 16.7961L18.6141 16.5014H18.0558C17.8717 16.5014 17.6894 16.4636 17.5193 16.3902C17.3493 16.3168 17.1947 16.2092 17.0645 16.0735C16.9344 15.9378 16.8311 15.7767 16.7607 15.5995C16.6902 15.4222 16.654 15.2322 16.654 15.0403V12.9531Z" fill="#9D2B2F"/>
</svg>