<svg width="32" height="32" viewBox="0 0 32 32" fill="none" xmlns="http://www.w3.org/2000/svg">
<circle cx="16" cy="16" r="16" fill="white"/>
<path d="M10.856 10.871C11.0926 11.1077 11.4758 11.1077 11.7118 10.871C11.9479 10.6344 11.9479 10.2512 11.7118 10.0152L10.4281 8.7308C10.1914 8.49414 9.80828 8.49414 9.57222 8.7308C9.33556 8.96746 9.33556 9.35059 9.57222 9.58665L10.856 10.871ZM11.2203 19.9306L9.94867 21.2023C9.71445 21.4365 9.71445 21.816 9.94867 22.0502C10.1829 22.2845 10.5624 22.2845 10.7966 22.0502L12.0683 20.7786C12.3025 20.5443 12.3025 20.1648 12.0683 19.9306C11.8341 19.6964 11.4546 19.6963 11.2203 19.9306ZM16.4196 8.92085C16.7537 8.92085 17.0248 8.64969 17.0248 8.31558V6.49979C17.0248 6.16569 16.7537 5.89453 16.4196 5.89453C16.0855 5.89453 15.8143 6.16569 15.8143 6.49979V8.31558C15.8143 8.64969 16.0855 8.92085 16.4196 8.92085ZM22.2428 10.6035L23.5145 9.33179C23.7487 9.09757 23.7487 8.71805 23.5145 8.48382C23.2803 8.2496 22.9007 8.2496 22.6665 8.48382L21.3948 9.75549C21.1606 9.98972 21.1606 10.3692 21.3948 10.6035C21.6291 10.8377 22.0086 10.8377 22.2428 10.6035ZM9.1564 14.9735H7.34061C7.00651 14.9735 6.73535 15.2446 6.73535 15.5787C6.73535 15.9128 7.00651 16.184 7.34061 16.184H9.1564C9.49051 16.184 9.76167 15.9128 9.76167 15.5787C9.76167 15.2446 9.49051 14.9735 9.1564 14.9735ZM16.4196 22.2366C16.0855 22.2366 15.8143 22.5078 15.8143 22.8419V24.6577C15.8143 24.9918 16.0855 25.263 16.4196 25.263C16.7537 25.263 17.0248 24.9918 17.0248 24.6577V22.8419C17.0248 22.5078 16.7537 22.2366 16.4196 22.2366ZM25.4985 14.9735H23.6827C23.3486 14.9735 23.0775 15.2446 23.0775 15.5787C23.0775 15.9128 23.3486 16.184 23.6827 16.184H25.4985C25.8326 16.184 26.1038 15.9128 26.1038 15.5787C26.1038 15.2446 25.8326 14.9735 25.4985 14.9735ZM21.9831 20.2865C21.7465 20.0498 21.3634 20.0498 21.1273 20.2865C20.8906 20.5232 20.8906 20.9063 21.1273 21.1423L22.4111 22.4261C22.6477 22.6627 23.0308 22.6627 23.2669 22.4261C23.503 22.1894 23.5036 21.8063 23.2669 21.5702L21.9831 20.2865ZM16.4196 10.1277C13.409 10.1277 10.9686 12.5682 10.9686 15.5787C10.9686 18.5893 13.409 21.0298 16.4196 21.0298C19.4302 21.0298 21.8706 18.5893 21.8706 15.5787C21.8706 12.5682 19.4302 10.1277 16.4196 10.1277Z" fill="#9D2B2F"/>
</svg>