<svg width="32" height="32" viewBox="0 0 32 32" fill="none" xmlns="http://www.w3.org/2000/svg">
<circle cx="16" cy="16" r="16" fill="#9D2B2F"/>
<path d="M22.5111 12.8278C21.9434 12.8278 21.4001 12.9363 20.8997 13.1336C20.5077 12.2436 20.169 11.3023 19.9998 10.4266C19.7281 9.02024 18.5116 7.99951 17.1072 7.99951C16.7513 7.99951 16.4627 8.29432 16.4627 8.65796C16.4627 9.0216 16.7513 9.31641 17.1072 9.31641C17.2606 9.31641 17.4099 9.33827 17.5522 9.37887C17.9846 9.50231 18.3515 9.80107 18.5654 10.2023C18.5481 10.2248 18.5316 10.2481 18.517 10.2733L18.3167 10.6177L17.3037 12.3599H11.8912L11.5835 11.5689H11.7112C12.0672 11.5689 12.3558 11.2741 12.3558 10.9104C12.3558 10.5468 12.0672 10.252 11.7112 10.252H9.48895C9.13299 10.252 8.84441 10.5468 8.84441 10.9104C8.84441 11.2741 9.13299 11.5689 9.48895 11.5689H10.1965L10.7589 13.015C10.3561 12.8934 9.92989 12.8278 9.48895 12.8278C7.01373 12.8278 5 14.885 5 17.4136C5 19.9423 7.01373 21.9995 9.4889 21.9995C11.7452 21.9995 13.6178 20.2899 13.9314 18.0721H15.115C15.3424 18.0721 15.553 17.9497 15.6691 17.7499L19.0562 11.9246C19.2549 12.5528 19.5036 13.1822 19.7717 13.7834C18.7084 14.6228 18.0222 15.9378 18.0222 17.4137C18.0222 19.9423 20.0359 21.9995 22.5111 21.9995C24.9863 21.9995 27 19.9423 27 17.4137C27 14.8851 24.9863 12.8278 22.5111 12.8278ZM9.4889 18.0721H12.6235C12.3245 19.5601 11.0326 20.6826 9.4889 20.6826C7.72452 20.6825 6.28906 19.2161 6.28906 17.4136C6.28906 15.6112 7.72452 14.1447 9.4889 14.1447C11.0326 14.1447 12.3245 15.2672 12.6235 16.7552H9.4889C9.13295 16.7552 8.84437 17.05 8.84437 17.4136C8.84437 17.7773 9.13295 18.0721 9.4889 18.0721ZM14.7482 16.7552H13.9314C13.7818 15.6973 13.2775 14.7552 12.546 14.059C12.5393 14.0326 12.5315 14.0063 12.5214 13.9802L12.4034 13.6769H16.5381L14.7482 16.7552ZM22.5111 20.6825C20.7467 20.6825 19.3113 19.2161 19.3113 17.4136C19.3113 16.4587 19.7142 15.5983 20.3554 15C21.1481 16.5477 21.9224 17.7013 21.9806 17.7876C22.1057 17.9728 22.307 18.0721 22.5117 18.0721C22.6379 18.0721 22.7655 18.0343 22.8772 17.9555C23.1702 17.7489 23.2438 17.3388 23.0415 17.0395C23.0277 17.019 22.2477 15.857 21.4667 14.3244C21.7943 14.2085 22.1454 14.1446 22.5111 14.1446C24.2755 14.1446 25.7109 15.6111 25.7109 17.4136C25.7109 19.216 24.2755 20.6825 22.5111 20.6825Z" fill="white"/>
</svg>