<svg width="32" height="32" viewBox="0 0 32 32" fill="none" xmlns="http://www.w3.org/2000/svg">
<circle cx="16" cy="16" r="16" fill="white"/>
<g clip-path="url(#clip0_64_153)">
<path d="M16.6285 13.7822L14.9893 16.1659L16.213 17.0075L17.8524 14.6239L17.6072 13.6699L16.6285 13.7822Z" fill="#9D2B2F"/>
<path d="M22.367 9.79102H21.9297V24.0005H22.8459C24.0236 24.0005 24.9817 23.0424 24.9817 21.8648V12.4056C24.9817 10.9639 23.8086 9.79102 22.367 9.79102Z" fill="#9D2B2F"/>
<path d="M20.9333 9.79049H20.4337C20.4171 9.53044 20.2014 9.32448 19.9372 9.32448H19.9115V8.2564C19.9115 7.56367 19.3422 7 18.6423 7H14.3722C13.6722 7 13.1028 7.56367 13.1028 8.2564V9.32448H13.0771C12.813 9.32448 12.5973 9.53044 12.5808 9.79049H12.0811V24H20.9333V9.79049ZM14.0989 8.2564C14.0989 8.10802 14.2164 7.99609 14.3722 7.99609H18.6423C18.7981 7.99609 18.9155 8.10802 18.9155 8.2564V9.32448H18.8898C18.6256 9.32448 18.4099 9.53044 18.3934 9.79049H17.9727C18.1288 9.93056 18.2702 10.0889 18.3934 10.2652C18.8136 10.8665 18.9745 11.5955 18.8465 12.3179C18.7898 12.6374 18.6797 12.9389 18.5187 13.2161L18.8733 14.5955C18.9091 14.7349 18.8829 14.883 18.8013 15.0016L16.7513 17.9823C16.6547 18.1228 16.4989 18.1981 16.3404 18.1981C16.2431 18.1981 16.1448 18.1697 16.0587 18.1105L14.0141 16.7043C13.9053 16.6294 13.8307 16.5144 13.8066 16.3846C13.7826 16.2546 13.8111 16.1205 13.886 16.0117L15.936 13.031C16.0177 12.9124 16.1466 12.8348 16.2897 12.8185L17.689 12.6578C17.774 12.4977 17.8334 12.3256 17.8655 12.1439C17.9472 11.6836 17.8447 11.219 17.5768 10.8356C17.309 10.4523 16.908 10.1963 16.4475 10.1147C16.2646 10.0823 16.1233 9.95378 16.0653 9.79036H14.6211C14.6045 9.53031 14.3889 9.32435 14.1247 9.32435H14.0989V8.2564Z" fill="#9D2B2F"/>
<path d="M11.0852 9.79102H10.6478C9.20608 9.79102 8.0332 10.9639 8.0332 12.4056V21.8648C8.0332 23.0424 8.99129 24.0005 10.169 24.0005H11.0852V9.79102Z" fill="#9D2B2F"/>
</g>
<defs>
<clipPath id="clip0_64_153">
<rect width="17" height="17" fill="white" transform="translate(8 7)"/>
</clipPath>
</defs>
</svg>