<svg width="32" height="32" viewBox="0 0 32 32" fill="none" xmlns="http://www.w3.org/2000/svg">
<circle cx="16" cy="16" r="16" fill="white"/>
<path d="M26.1365 14.6244C25.7346 14.4906 22.939 13.8821 22.939 13.8821C22.939 13.8821 17.7565 10.9473 17.1345 10.9473C16.5126 10.9473 12.2462 10.9492 12.2462 10.9492C11.2038 10.9492 10.3327 11.7402 9.32403 12.656C8.84868 13.0876 8.32399 13.5625 7.74525 13.9849L5.5898 14.2703C5.27834 14.3692 5.05273 14.6595 5.05273 15.0024V17.4618C5.05273 17.8862 5.39818 18.2303 5.82442 18.2303H7.30557C7.41314 19.4648 8.45586 20.4368 9.72293 20.4368C10.9899 20.4368 12.0327 19.4648 12.1403 18.2303H19.2127C19.3203 19.4649 20.363 20.4368 21.63 20.4368C22.8971 20.4368 23.9398 19.4648 24.0474 18.2303H25.2642C26.2284 18.2303 26.6995 17.8156 26.8178 17.4264C27.117 16.4413 26.9018 14.8792 26.1365 14.6244ZM9.72293 19.2719C9.0296 19.2719 8.46548 18.7102 8.46548 18.0198C8.46548 17.3293 9.02952 16.7675 9.72293 16.7675C10.4163 16.7675 10.9803 17.3292 10.9803 18.0198C10.9803 18.7102 10.4163 19.2719 9.72293 19.2719ZM14.3905 13.8822H10.1735C10.4785 13.6422 10.7605 13.3875 11.0203 13.1516C11.7031 12.5316 12.2928 11.9961 12.9985 11.9961C12.9985 11.9961 13.6371 11.9959 14.3905 11.9955V13.8822H14.3905ZM15.4173 11.9952C15.9392 11.995 16.4045 11.9948 16.6379 11.9948C17.219 11.9948 19.5763 13.3581 20.461 13.8822H15.4173V11.9952ZM21.63 19.2719C20.9367 19.2719 20.3726 18.7102 20.3726 18.0198C20.3726 17.3293 20.9367 16.7675 21.63 16.7675C22.3233 16.7675 22.8875 17.3292 22.8875 18.0198C22.8875 18.7102 22.3233 19.2719 21.63 19.2719Z" fill="#9D2B2F"/>
</svg>