<svg width="32" height="32" viewBox="0 0 32 32" fill="none" xmlns="http://www.w3.org/2000/svg">
<circle cx="16" cy="16" r="16" fill="#9D2B2F"/>
<path d="M15.9995 15.5368C15.3614 15.5368 14.7494 15.2928 14.2982 14.8585C13.847 14.4242 13.5935 13.8352 13.5935 13.221C13.5935 12.6068 13.847 12.0178 14.2982 11.5835C14.7494 11.1492 15.3614 10.9052 15.9995 10.9052C16.6377 10.9052 17.2496 11.1492 17.7008 11.5835C18.1521 12.0178 18.4056 12.6068 18.4056 13.221C18.4056 13.5251 18.3433 13.8263 18.2224 14.1072C18.1015 14.3882 17.9243 14.6435 17.7008 14.8585C17.4774 15.0736 17.2122 15.2442 16.9203 15.3605C16.6284 15.4769 16.3155 15.5368 15.9995 15.5368ZM15.9995 6.73682C14.2128 6.73682 12.4993 7.41997 11.2359 8.636C9.97247 9.85202 9.2627 11.5013 9.2627 13.221C9.2627 18.0842 15.9995 25.2631 15.9995 25.2631C15.9995 25.2631 22.7364 18.0842 22.7364 13.221C22.7364 11.5013 22.0266 9.85202 20.7632 8.636C19.4998 7.41997 17.7863 6.73682 15.9995 6.73682Z" fill="white"/>
</svg>