<svg width="178" height="55" viewBox="0 0 178 55" fill="none" xmlns="http://www.w3.org/2000/svg">
<g clip-path="url(#clip0_38_313)">
<path d="M112.494 29.264C112.422 25.3755 109.232 22.255 105.346 22.255C101.436 22.255 98.2704 25.3995 98.1984 29.264H96.1597C96.0877 25.3755 92.8977 22.255 89.012 22.255C85.1024 22.255 81.9364 25.3995 81.8644 29.264H79.8256C79.7537 25.3755 76.5636 22.255 72.678 22.255C68.7684 22.255 65.6023 25.3995 65.5304 29.264H0.0743141V47.8188C0.0743141 51.7794 3.28835 54.9959 7.24594 54.9959H170.754C174.712 54.9959 177.926 51.7794 177.926 47.8188V29.264H112.494Z" fill="#505456"/>
<path d="M13.2667 20.2635V19.8314L14.442 19.5194C15.6173 19.2073 15.8091 18.9913 15.8091 16.5429V10.566H5.95116V16.5429C5.95116 18.9913 6.11905 19.2073 7.31832 19.5194L8.49361 19.8314V20.2635H0.0987282V19.8314L1.27401 19.5194C2.44929 19.2073 2.64118 18.9913 2.64118 16.5429V4.49313C2.64118 2.04476 2.47328 1.82873 1.27401 1.51668L0.0987282 1.20464V0.772573H8.49361V1.20464L7.31832 1.51668C6.14304 1.82873 5.95116 2.04476 5.95116 4.49313V9.26985H15.8331V4.49313C15.8331 2.04476 15.6652 1.82873 14.466 1.51668L13.2907 1.20464V0.772573H21.6856V1.20464L20.5103 1.51668C19.335 1.82873 19.1431 2.04476 19.1431 4.49313V16.5429C19.1431 18.9913 19.311 19.2073 20.5103 19.5194L21.6856 19.8314V20.2635H13.2667Z" fill="#505456"/>
<path d="M22.5733 10.542C22.5733 4.15699 27.5623 0.196402 32.6712 0.196402C38.1638 0.196402 42.841 3.36488 42.841 10.542C42.841 16.4708 38.2118 20.7195 32.6712 20.7195C26.6988 20.7195 22.5733 17.239 22.5733 10.542ZM39.1472 10.542C39.1472 3.89295 35.8612 1.34857 32.6712 1.34857C29.673 1.34857 26.2431 3.74893 26.2431 10.542C26.2431 17.0949 29.4092 19.5193 32.7191 19.5193C35.9332 19.5193 39.1472 17.1429 39.1472 10.542Z" fill="#505456"/>
<path d="M56.9196 20.2625V19.8305L58.0949 19.5184C59.2701 19.2064 59.462 18.9903 59.462 16.542V10.5651H49.5801V16.542C49.5801 18.9903 49.748 19.2064 50.9472 19.5184L52.1225 19.8305V20.2625H43.7276V19.8305L44.9029 19.5184C46.0782 19.2064 46.2701 18.9903 46.2701 16.542V4.49215C46.2701 2.04379 46.1022 1.82775 44.9029 1.51571L43.7276 1.20366V0.771597H52.1225V1.20366L50.9472 1.51571C49.7719 1.82775 49.5801 2.04379 49.5801 4.49215V9.26887H59.462V4.49215C59.462 2.04379 59.2941 1.82775 58.0949 1.51571L56.9196 1.20366V0.771597H65.3145V1.20366L64.1392 1.51571C62.9639 1.82775 62.772 2.04379 62.772 4.49215V16.542C62.772 18.9903 62.9399 19.2064 64.1392 19.5184L65.3145 19.8305V20.2625H56.9196Z" fill="#505456"/>
<path d="M66.9942 20.2625V19.8305L68.1695 19.5184C69.3448 19.2064 69.5367 18.9903 69.5367 16.542V4.49215C69.5367 2.04379 69.3688 1.82775 68.1695 1.51571L66.9942 1.20366V0.771597H80.7618V4.63618H80.2341L79.8984 3.36398C79.6105 2.28382 78.9629 1.99578 75.7489 1.99578H72.8706V9.34088H75.7489C78.4113 9.34088 78.819 9.24487 79.1068 8.23672L79.4186 7.15655H79.8744V12.8694H79.4186L79.0829 11.6452C78.795 10.6371 78.4113 10.5411 75.7729 10.5411H72.8946V15.9899C72.8946 18.7023 73.2784 18.9663 74.4777 18.9663H76.4924C79.4666 18.9663 80.3061 18.5343 80.8818 17.3101L81.5054 15.9899L82.033 16.1099L81.1696 20.2145H66.9942V20.2625Z" fill="#505456"/>
<path d="M91.7227 20.2635V19.8314L92.898 19.5194C94.0733 19.2073 94.2652 18.9913 94.2652 16.5429V4.49313C94.2652 2.04476 94.0973 1.82873 92.898 1.51668L91.7227 1.20464V0.772573H100.118V1.20464L98.9423 1.51668C97.7671 1.82873 97.5752 2.04476 97.5752 4.49313V16.5429C97.5752 18.9913 97.7431 19.2073 98.9423 19.5194L100.118 19.8314V20.2635H91.7227ZM105.274 20.2875L98.0549 10.158L102.468 5.23724C104.843 2.54884 104.579 1.80473 103.308 1.49268L102.228 1.20464V0.772573H109.304V1.20464L108.321 1.51668C107.361 1.82873 107.025 2.23679 104.675 4.82918L100.957 8.9338L106.354 16.1829C107.913 18.2712 108.92 19.2793 109.568 19.4954L110.527 19.8074V20.2395L105.274 20.2875Z" fill="#505456"/>
<path d="M111.751 20.2625V19.8305L112.926 19.5184C114.102 19.2064 114.294 18.9903 114.294 16.542V4.49215C114.294 2.04379 114.126 1.82775 112.926 1.51571L111.751 1.20366V0.771597H120.722V1.20366L119.067 1.53971C117.843 1.77975 117.604 2.01978 117.604 4.49215V16.0379C117.604 18.7503 117.987 19.0143 119.187 19.0143H120.866C123.84 19.0143 124.751 18.6063 125.255 17.3581L125.95 15.4618L126.622 15.5818L125.663 20.2625H111.751Z" fill="#505456"/>
<path d="M127.845 20.2635V19.8314L129.02 19.5194C130.195 19.2073 130.387 18.9913 130.387 16.5429V4.49313C130.387 2.04476 130.219 1.82873 129.02 1.51668L127.845 1.20464V0.772573H136.24V1.20464L135.064 1.51668C133.889 1.82873 133.697 2.04476 133.697 4.49313V16.5429C133.697 18.9913 133.865 19.2073 135.064 19.5194L136.24 19.8314V20.2635H127.845Z" fill="#505456"/>
<path d="M155.26 20.5751L144.227 6.55703C143.459 5.54888 142.908 4.82877 142.668 4.27669H142.572C142.572 4.61274 142.62 5.50087 142.62 6.10096V12.4619C142.62 18.6308 142.956 19.1829 144.227 19.447L145.906 19.831V20.2631H138.423V19.831L139.598 19.519C140.701 19.2069 140.917 18.6788 140.917 13.9501V4.49272C140.917 2.04436 140.509 1.80432 139.334 1.54028L137.799 1.20423V0.772164H143.963L153.485 13.158C154.205 14.0462 154.9 15.0303 155.14 15.6304H155.188C155.188 14.9583 155.164 13.9021 155.164 13.4941V8.54933C155.164 2.3804 154.781 1.82832 153.509 1.56428L151.854 1.18022V0.748159H159.338V1.18022L158.162 1.49227C157.035 1.80432 156.843 2.3324 156.843 7.06111V20.5511H155.26V20.5751Z" fill="#505456"/>
<path d="M164.902 20.2631V19.831L166.317 19.5189C167.493 19.2309 167.684 18.9909 167.684 16.5425V2.09233H165.838C162.6 2.09233 161.904 2.64441 161.688 3.74858L161.352 5.47684H160.801V0.00401688H161.328L161.448 0.340068C161.592 0.772132 161.904 0.82014 163.991 0.82014H174.76C176.847 0.82014 177.159 0.772132 177.303 0.340068L177.423 0.00401688H177.974V5.45283H177.399L177.063 3.72457C176.823 2.62041 176.127 2.06833 172.913 2.06833H171.066V16.5185C171.066 18.9669 171.258 19.2069 172.434 19.4949L173.849 19.807V20.239H164.902V20.2631Z" fill="#505456"/>
<path d="M5.63877 42.2032H8.68491V43.2354H5.63877V42.2032Z" fill="white"/>
<path d="M20.8695 46.7636L17.0078 43.1871V46.7636H15.7606V38.6504H19.5503C21.3252 38.6504 22.5005 39.5145 22.5005 41.0987C22.5005 42.707 21.4212 43.4991 19.6462 43.4991H18.9746L22.6684 46.7636H20.8695ZM16.9839 42.4189H19.6222C20.5577 42.4189 21.2053 42.0109 21.2053 41.0987C21.2053 40.2106 20.5577 39.7785 19.6222 39.7785H16.9839V42.4189Z" fill="white"/>
<path d="M25.4267 38.6504H31.7588V39.7785H26.6739V41.8429H30.3677V42.947H26.6739V45.5874H31.7588V46.7396H25.4267V38.6504Z" fill="white"/>
<path d="M37.5154 46.86C36.1962 46.86 34.8291 46.5 33.8936 45.8999L34.5652 44.9158C35.4287 45.4438 36.532 45.7319 37.5634 45.7079C38.6907 45.7079 39.4583 45.2758 39.4822 44.5317C39.5062 43.8596 39.0505 43.5956 37.8512 43.3315L36.7719 43.0915C35.0449 42.7074 34.2294 41.9633 34.2294 40.7871C34.2294 39.4669 35.5486 38.5788 37.3236 38.5548C38.4988 38.5548 39.6501 38.9149 40.4896 39.4189L39.866 40.4031C39.1464 39.971 38.3309 39.683 37.4675 39.707C36.3641 39.707 35.5726 40.115 35.5966 40.8351C35.5966 41.4592 36.1003 41.7713 37.1557 42.0113L38.307 42.2754C40.0339 42.6594 40.7774 43.3315 40.7774 44.5557C40.7774 45.9239 39.4343 46.86 37.5154 46.86Z" fill="white"/>
<path d="M45.4065 39.8025H42.5762V38.6504H49.484V39.8025H46.6537V46.7636H45.4065V39.8025Z" fill="white"/>
<path d="M54.5691 38.338L59.1264 46.7633H57.7832L56.8478 44.987H52.2905L51.3311 46.7633H49.964L54.5691 38.338ZM56.2721 43.9308L54.5452 40.6664L52.8182 43.9308H56.2721Z" fill="white"/>
<path d="M60.6856 42.8746V38.6739H61.9329V42.8746C61.9329 44.6988 62.7004 45.707 64.4274 45.707C66.1543 45.707 66.9218 44.6988 66.9218 42.8986V38.6739H68.1931V42.8986C68.1931 45.3709 66.9218 46.8832 64.4274 46.8832C61.9329 46.8592 60.6856 45.3469 60.6856 42.8746Z" fill="white"/>
<path d="M76.5152 46.7637L72.6536 43.1872V46.7637H71.4063V38.6505H75.196C76.9709 38.6505 78.1462 39.5146 78.1462 41.0989C78.1462 42.7071 77.0669 43.4992 75.292 43.4992H74.6204L78.3141 46.7637H76.5152ZM72.6536 42.4191H75.292C76.2274 42.4191 76.875 42.011 76.875 41.0989C76.875 40.2107 76.2274 39.7787 75.292 39.7787H72.6536V42.4191Z" fill="white"/>
<path d="M84.2147 38.338L88.7719 46.7633H87.4287L86.4933 44.987H81.936L80.9766 46.7633H79.6095L84.2147 38.338ZM85.9176 43.9308L84.1907 40.6664L82.4637 43.9308H85.9176Z" fill="white"/>
<path d="M90.9063 38.6505H92.1536L97.1425 44.9394V38.6505H98.3898V46.7637H97.1665L92.1776 40.4748V46.7637H90.9303V38.6505H90.9063Z" fill="white"/>
<path d="M103.715 39.8025H100.885V38.6504H107.792V39.8025H104.962V46.7636H103.715V39.8025Z" fill="white"/>
<path d="M118.993 45.5873L118.681 45.9233C118.13 46.4754 117.458 46.8595 116.643 46.8595C115.012 46.8595 114.076 45.8033 114.076 44.4831C114.076 43.811 114.412 43.2109 115.156 42.6108L115.611 42.2508C114.94 41.5307 114.58 41.1226 114.58 40.4745C114.58 39.3944 115.443 38.5782 116.643 38.5782C117.914 38.5782 118.753 39.3944 118.753 40.4745C118.753 41.3627 118.298 41.7467 117.41 42.4428L118.897 43.979L119.929 42.6829L120.72 43.427L119.641 44.7232L120.936 45.9954L120.169 46.8595L118.993 45.5873ZM117.962 45.1312L118.25 44.7952L116.427 42.9949L116.067 43.2589C115.587 43.571 115.252 43.979 115.252 44.5071C115.252 45.2992 115.851 45.8033 116.667 45.8033C117.218 45.7793 117.65 45.4913 117.962 45.1312ZM117.626 40.4265C117.626 39.8984 117.242 39.5624 116.667 39.5624C116.115 39.5624 115.707 39.9224 115.707 40.4265C115.707 40.8826 116.043 41.1706 116.571 41.6987C117.242 41.2426 117.626 41.0026 117.626 40.4265Z" fill="white"/>
<path d="M127.509 42.707C127.509 40.3547 129.38 38.5304 131.826 38.5304C133.145 38.5304 134.321 39.0585 135.16 39.9706L134.201 40.7387C133.577 40.0666 132.738 39.7066 131.826 39.7066C130.099 39.7066 128.756 40.9788 128.756 42.707C128.756 44.4593 130.099 45.7315 131.826 45.7315C132.786 45.7315 133.601 45.3714 134.225 44.6993L135.208 45.4434C134.345 46.3796 133.193 46.9076 131.85 46.9076C129.356 46.9076 127.509 45.0594 127.509 42.707Z" fill="white"/>
<path d="M141.228 38.338L145.785 46.7633H144.418L143.483 44.987H138.925L137.966 46.7633H136.599L141.228 38.338ZM142.931 43.9308L141.204 40.6664L139.477 43.9308H142.931Z" fill="white"/>
<path d="M147.92 38.6504H154.012V39.8025H149.167V41.8669H152.621V42.971H149.167V46.7396H147.92V38.6504Z" fill="white"/>
<path d="M156.387 38.6504H162.719V39.7785H157.634V41.8429H161.328V42.947H157.634V45.5874H162.719V46.7396H156.387V38.6504ZM159.793 36.13H161.184L160.296 37.6902H159.121L159.793 36.13Z" fill="white"/>
<path d="M169.291 42.2032H172.337V43.2354H169.291V42.2032Z" fill="white"/>
<path d="M88.9876 35.5782C92.392 35.5782 95.1518 32.8163 95.1518 29.4093C95.1518 26.0023 92.392 23.2403 88.9876 23.2403C85.5832 23.2403 82.8233 26.0023 82.8233 29.4093C82.8233 32.8163 85.5832 35.5782 88.9876 35.5782Z" fill="white"/>
<path d="M105.346 35.5772C108.75 35.5772 111.51 32.8153 111.51 29.4083C111.51 26.0013 108.75 23.2394 105.346 23.2394C101.942 23.2394 99.1817 26.0013 99.1817 29.4083C99.1817 32.8153 101.942 35.5772 105.346 35.5772Z" fill="white"/>
<path d="M72.6536 35.5782C76.058 35.5782 78.8178 32.8163 78.8178 29.4093C78.8178 26.0023 76.058 23.2403 72.6536 23.2403C69.2492 23.2403 66.4893 26.0023 66.4893 29.4093C66.4893 32.8163 69.2492 35.5782 72.6536 35.5782Z" fill="white"/>
<path d="M88.988 23.6956C85.846 23.6956 83.2795 26.24 83.2795 29.4084C83.2795 31.7128 84.6467 33.7051 86.6375 34.6172L86.7094 33.081C86.7334 32.7929 86.5895 32.5049 86.3497 32.3369L86.0858 32.1208C85.9659 32.0248 85.8699 31.8568 85.8699 31.7128V29.3364C85.8699 28.1602 86.0378 27.1521 86.4456 26.2159C86.7574 25.4958 87.0692 25.1358 87.2611 24.9198C87.357 24.7997 87.5489 24.8717 87.5489 25.0398C87.5489 26.36 87.5249 30.8246 87.5489 32.4809C87.5489 33.009 87.5969 34.1131 87.6209 35.0013C88.0526 35.0973 88.5083 35.1693 88.9641 35.1693C89.2998 35.1693 89.6356 35.1453 89.9475 35.0733L90.1393 31.4247C89.3958 31.2327 88.8921 30.5366 88.9641 29.7685L89.2999 26.288C89.2999 26.1919 89.3958 26.1199 89.4677 26.1199C89.5637 26.1199 89.6356 26.1919 89.6356 26.288V29.6485C89.6356 29.7445 89.7076 29.8165 89.8035 29.8165C89.8995 29.8165 89.9714 29.7445 89.9714 29.6485V26.288C89.9714 26.1919 90.0434 26.1199 90.1393 26.1199H90.1633C90.2593 26.1199 90.3312 26.1919 90.3312 26.288V29.6485C90.3312 29.7445 90.4032 29.8165 90.4991 29.8165C90.5951 29.8165 90.667 29.7445 90.667 29.6485V26.288C90.667 26.1919 90.739 26.1199 90.8349 26.1199H90.8589C90.9548 26.1199 91.0268 26.1919 91.0268 26.288V29.6485C91.0268 29.7445 91.0988 29.8165 91.1947 29.8165C91.2906 29.8165 91.3626 29.7445 91.3626 29.6485V26.288C91.3626 26.1919 91.4345 26.1199 91.5305 26.1199C91.6264 26.1199 91.6984 26.1919 91.6984 26.288L92.0342 29.7205C92.1061 30.5126 91.6024 31.2567 90.8589 31.4247L91.0268 34.7612C93.1375 33.9211 94.6246 31.8568 94.6246 29.4564C94.6966 26.264 92.1541 23.6956 88.988 23.6956ZM102.324 28.0402L103.307 33.369H107.385L108.368 28.0402H102.324ZM103.451 33.201L102.78 29.5284H107.145L106.473 33.201H103.451ZM107.241 33.201H106.905L107.577 29.5284H107.912L107.241 33.201ZM105.346 23.6956C102.204 23.6956 99.6375 26.24 99.6375 29.4084C99.6375 31.6648 100.933 33.6091 102.828 34.5452C102.828 34.5212 102.828 34.5212 102.828 34.4972L101.988 27.9922C101.964 27.8722 102.06 27.7522 102.204 27.7522H108.488C108.608 27.7522 108.704 27.8722 108.704 27.9922L107.865 34.4972C107.865 34.5212 107.865 34.5212 107.865 34.5452C109.759 33.6091 111.055 31.6648 111.055 29.4084C111.055 26.264 108.488 23.6956 105.346 23.6956ZM69.7998 30.2726C69.7998 30.2486 69.7758 30.2486 69.7998 30.2726C69.7758 30.2486 69.7758 30.2726 69.7758 30.2726C69.7518 31.6408 70.2555 33.129 71.4308 33.9211H71.4547V33.8971C70.5673 32.8169 70.1835 31.5688 69.7998 30.2726ZM76.6836 30.8246C76.4437 30.6086 75.988 30.6566 75.6042 30.7526C75.5562 31.4727 75.3644 32.1688 75.1005 32.7449C75.94 32.4089 76.5396 31.7608 76.7075 31.2567C76.7555 31.1607 76.8035 30.9447 76.6836 30.8246ZM72.654 23.6956C69.5119 23.6956 66.9455 26.24 66.9455 29.4084C66.9455 31.5928 68.1687 33.465 69.9437 34.4252H70.8791C69.7758 33.6811 68.9843 32.0968 68.9843 30.2486C68.9843 30.1525 68.9843 30.0565 68.9843 29.9845C68.9843 29.7445 69.2001 29.5284 69.44 29.5284H75.1005C75.3404 29.5284 75.5562 29.7205 75.5562 29.9845C75.5562 30.0325 75.5562 30.0805 75.5562 30.1285C76.0359 30.0085 76.6116 30.0085 77.0193 30.3686C77.3072 30.6086 77.3791 31.0167 77.2112 31.4727C76.9234 32.3369 75.892 33.249 74.5968 33.489C74.333 33.8731 74.0212 34.1851 73.6614 34.4012H75.2924C77.0673 33.441 78.2906 31.5447 78.2906 29.3844C78.3625 26.264 75.7961 23.6956 72.654 23.6956ZM72.606 28.0882C72.5821 28.2082 72.5581 28.3283 72.5101 28.4483C72.4621 28.5443 72.4142 28.6403 72.3422 28.7363C72.2942 28.8083 72.2223 28.8803 72.1503 28.9524L72.1023 28.9764C72.0784 29.0004 72.0544 29.0244 72.0304 29.0484L71.9824 29.0724C71.9824 29.0724 71.9584 29.0724 71.9584 29.0964L71.9824 29.0004C72.0064 28.9284 72.0304 28.8803 72.0544 28.8083V28.7843C72.0784 28.7123 72.1023 28.6163 72.1263 28.5443C72.1503 28.4483 72.1743 28.3523 72.1743 28.2803C72.1743 28.1842 72.1983 28.1122 72.1743 28.0402C72.1743 27.9682 72.1503 27.9202 72.1263 27.8482C72.1023 27.7762 72.0544 27.7282 72.0304 27.6562C71.9824 27.6082 71.9345 27.5361 71.8865 27.4641C71.8625 27.4161 71.8145 27.3921 71.7905 27.3441L71.6706 27.2241C71.6466 27.2001 71.6226 27.1761 71.5987 27.1521C71.5747 27.1281 71.5507 27.1041 71.5267 27.0561C71.5027 27.0321 71.5027 27.0081 71.4787 26.9601C71.4068 26.84 71.3828 26.696 71.3828 26.552C71.3828 26.432 71.3828 26.288 71.4308 26.1679C71.4787 25.9519 71.5747 25.7599 71.7186 25.5679C71.7666 25.5198 71.8145 25.4478 71.8385 25.3998C71.8145 25.4958 71.7905 25.5919 71.7905 25.6639C71.7666 25.7599 71.7426 25.9039 71.7426 25.9039V25.9279C71.7426 25.9519 71.7426 25.9759 71.7426 25.9999C71.7426 26.0959 71.7186 26.2159 71.7426 26.336C71.7426 26.36 71.7426 26.384 71.7666 26.408V26.432C71.8145 26.576 71.8865 26.72 72.0304 26.9121C72.4381 27.4161 72.5581 27.6082 72.5581 27.8962C72.606 28.0162 72.606 28.0642 72.606 28.0882ZM73.4215 27.5601C73.3976 27.7042 73.3736 27.8722 73.3256 28.0162C73.2776 28.1362 73.2297 28.2563 73.1577 28.3763C73.1097 28.4723 73.0378 28.5683 72.9658 28.6403L72.9178 28.6883C72.8939 28.7123 72.8699 28.7363 72.8459 28.7603L72.7979 28.7843L72.7739 28.8083L72.7979 28.6883C72.8219 28.6163 72.8459 28.5203 72.8699 28.4483V28.4003C72.8939 28.3043 72.9179 28.2082 72.9418 28.1122C72.9658 27.9922 72.9898 27.8962 72.9898 27.7762C72.9898 27.6802 73.0138 27.5842 72.9898 27.4881C72.9898 27.4161 72.9658 27.3441 72.9418 27.2721C72.9179 27.2001 72.8699 27.1281 72.8459 27.0561C72.7979 26.9841 72.75 26.9121 72.702 26.816C72.678 26.768 72.63 26.72 72.606 26.672L72.4861 26.504C72.4621 26.48 72.4381 26.432 72.4142 26.408C72.3902 26.384 72.3662 26.336 72.3422 26.312C72.3182 26.288 72.3182 26.24 72.2942 26.1919C72.2223 26.0479 72.1983 25.8559 72.1983 25.6879C72.1983 25.5438 72.1983 25.3758 72.2463 25.2078C72.2942 24.9438 72.3902 24.7277 72.5341 24.4877C72.5821 24.4157 72.63 24.3437 72.654 24.2957C72.63 24.4157 72.606 24.5117 72.606 24.6317C72.5821 24.7517 72.5581 24.9438 72.5581 24.9438V24.9678C72.5581 24.9918 72.5581 25.0398 72.5581 25.0638C72.5581 25.1838 72.5341 25.3278 72.5581 25.4718C72.5581 25.4958 72.5581 25.5198 72.5821 25.5679V25.5919C72.63 25.7599 72.702 25.9519 72.8459 26.1919C73.2536 26.792 73.3736 27.0561 73.3736 27.4161C73.4215 27.4881 73.4215 27.5361 73.4215 27.5601Z" fill="#7E1710"/>
</g>
<defs>
<clipPath id="clip0_38_313">
<rect width="178" height="55" fill="white"/>
</clipPath>
</defs>
</svg>