<svg width="320" height="100" viewBox="0 0 320 100" fill="none" xmlns="http://www.w3.org/2000/svg">
<g clip-path="url(#clip0_64_263)">
<path d="M202.236 53.2088C202.107 46.1387 196.372 40.4651 189.386 40.4651C182.358 40.4651 176.666 46.1823 176.537 53.2088H172.872C172.742 46.1387 167.007 40.4651 160.022 40.4651C152.993 40.4651 147.302 46.1823 147.172 53.2088H143.507C143.378 46.1387 137.643 40.4651 130.657 40.4651C123.629 40.4651 117.937 46.1823 117.808 53.2088H0.133789V86.9448C0.133789 94.1458 5.91183 99.994 13.0266 99.994H306.974C314.089 99.994 319.867 94.1458 319.867 86.9448V53.2088H202.236Z" fill="white"/>
<path d="M23.8495 36.8426V36.057L25.9624 35.4896C28.0752 34.9223 28.4202 34.5295 28.4202 30.0779V19.2108H10.698V30.0779C10.698 34.5295 10.9998 34.9223 13.1558 35.4896L15.2687 36.057V36.8426H0.176758V36.057L2.28963 35.4896C4.40249 34.9223 4.74745 34.5295 4.74745 30.0779V8.16919C4.74745 3.71762 4.44561 3.32483 2.28963 2.75747L0.176758 2.19011V1.40454H15.2687V2.19011L13.1558 2.75747C11.0429 3.32483 10.698 3.71762 10.698 8.16919V16.8541H28.4633V8.16919C28.4633 3.71762 28.1615 3.32483 26.0055 2.75747L23.8926 2.19011V1.40454H38.9845V2.19011L36.8717 2.75747C34.7588 3.32483 34.4138 3.71762 34.4138 8.16919V30.0779C34.4138 34.5295 34.7157 34.9223 36.8717 35.4896L38.9845 36.057V36.8426H23.8495Z" fill="white"/>
<path d="M40.5801 19.1675C40.5801 7.5585 49.549 0.357422 58.7335 0.357422C68.6079 0.357422 77.0163 6.11828 77.0163 19.1675C77.0163 29.9473 68.6942 37.6721 58.7335 37.6721C47.9967 37.6721 40.5801 31.3439 40.5801 19.1675ZM70.3758 19.1675C70.3758 7.07843 64.4684 2.45228 58.7335 2.45228C53.3435 2.45228 47.1774 6.81657 47.1774 19.1675C47.1774 31.082 52.8692 35.49 58.8197 35.49C64.5978 35.49 70.3758 31.1693 70.3758 19.1675Z" fill="white"/>
<path d="M102.327 36.8428V36.0572L104.44 35.4899C106.553 34.9225 106.898 34.5297 106.898 30.0782V19.2111H89.1326V30.0782C89.1326 34.5297 89.4344 34.9225 91.5904 35.4899L93.7032 36.0572V36.8428H78.6113V36.0572L80.7242 35.4899C82.8371 34.9225 83.182 34.5297 83.182 30.0782V8.16944C83.182 3.71786 82.8802 3.32507 80.7242 2.75771L78.6113 2.19036V1.40479H93.7032V2.19036L91.5904 2.75771C89.4775 3.32507 89.1326 3.71786 89.1326 8.16944V16.8544H106.898V8.16944C106.898 3.71786 106.596 3.32507 104.44 2.75771L102.327 2.19036V1.40479H117.419V2.19036L115.306 2.75771C113.193 3.32507 112.848 3.71786 112.848 8.16944V30.0782C112.848 34.5297 113.15 34.9225 115.306 35.4899L117.419 36.0572V36.8428H102.327Z" fill="white"/>
<path d="M120.438 36.8428V36.0572L122.55 35.4899C124.663 34.9225 125.008 34.5297 125.008 30.0782V8.16944C125.008 3.71786 124.706 3.32507 122.55 2.75771L120.438 2.19036V1.40479H145.188V8.43129H144.24L143.636 6.11822C143.118 4.15429 141.954 3.63057 136.176 3.63057H131.002V16.9853H136.176C140.963 16.9853 141.696 16.8107 142.213 14.9777L142.774 13.0138H143.593V23.4008H142.774L142.17 21.175C141.652 19.342 140.962 19.1674 136.219 19.1674H131.045V29.0744C131.045 34.006 131.735 34.4861 133.891 34.4861H137.513C142.86 34.4861 144.369 33.7005 145.404 31.4747L146.525 29.0744L147.474 29.2926L145.921 36.7555H120.438V36.8428Z" fill="white"/>
<path d="M164.895 36.8428V36.0572L167.007 35.4899C169.12 34.9225 169.465 34.5297 169.465 30.0782V8.16944C169.465 3.71786 169.163 3.32507 167.007 2.75771L164.895 2.19036V1.40479H179.986V2.19036L177.874 2.75771C175.761 3.32507 175.416 3.71786 175.416 8.16944V30.0782C175.416 34.5297 175.718 34.9225 177.874 35.4899L179.986 36.0572V36.8428H164.895ZM189.257 36.8865L176.278 18.4692L184.212 9.52236C188.481 4.63436 188.007 3.28143 185.721 2.71407L183.781 2.19036V1.40479H196.501V2.19036L194.733 2.75771C193.009 3.32507 192.405 4.067 188.179 8.78043L181.496 16.2434L191.198 29.4235C194 33.2205 195.811 35.0535 196.976 35.4462L198.7 36.0136V36.7992L189.257 36.8865Z" fill="white"/>
<path d="M200.899 36.8426V36.057L203.012 35.4896C205.125 34.9223 205.47 34.5295 205.47 30.0779V8.16919C205.47 3.71762 205.168 3.32483 203.012 2.75747L200.899 2.19011V1.40454H217.026V2.19011L214.051 2.80111C211.852 3.23754 211.421 3.67397 211.421 8.16919V29.1614C211.421 34.0931 212.111 34.5731 214.267 34.5731H217.285C222.632 34.5731 224.27 33.8312 225.176 31.5618L226.426 28.114L227.634 28.3322L225.909 36.8426H200.899Z" fill="white"/>
<path d="M229.833 36.8428V36.0572L231.946 35.4899C234.059 34.9225 234.404 34.5297 234.404 30.0782V8.16944C234.404 3.71786 234.102 3.32507 231.946 2.75771L229.833 2.19036V1.40479H244.925V2.19036L242.812 2.75771C240.699 3.32507 240.354 3.71786 240.354 8.16944V30.0782C240.354 34.5297 240.656 34.9225 242.812 35.4899L244.925 36.0572V36.8428H229.833Z" fill="white"/>
<path d="M279.119 37.4104L259.284 11.9229C257.904 10.0899 256.912 8.78062 256.481 7.77684H256.308C256.308 8.38784 256.395 10.0026 256.395 11.0937V22.6591C256.395 33.8753 256.998 34.8791 259.284 35.3592L262.302 36.0574V36.843H248.849V36.0574L250.962 35.4901C252.945 34.9227 253.333 33.9626 253.333 25.3649V8.16962C253.333 3.71805 252.6 3.28162 250.487 2.80155L247.728 2.19054V1.40497H258.809L275.928 23.9247C277.221 25.5395 278.472 27.3289 278.903 28.4199H278.989C278.989 27.1979 278.946 25.2776 278.946 24.5357V15.5453C278.946 4.32905 278.256 3.32526 275.971 2.84519L272.996 2.1469V1.36133H286.449V2.1469L284.336 2.71426C282.31 3.28162 281.965 4.24176 281.965 12.8394V37.3667H279.119V37.4104Z" fill="white"/>
<path d="M296.453 36.8424V36.0568L298.997 35.4895C301.11 34.9658 301.454 34.5293 301.454 30.0778V3.80475H298.134C292.313 3.80475 291.063 4.80853 290.675 6.8161L290.071 9.9584H289.079V0.0078125H290.028L290.243 0.618814C290.502 1.40439 291.063 1.49167 294.814 1.49167H314.175C317.926 1.49167 318.487 1.40439 318.745 0.618814L318.961 0.0078125H319.953V9.91475H318.918L318.314 6.77246C317.883 4.76489 316.633 3.7611 310.855 3.7611H307.534V30.0341C307.534 34.4857 307.879 34.9221 309.992 35.4459L312.536 36.0132V36.7988H296.453V36.8424Z" fill="white"/>
<path d="M10.1377 76.7341H15.6139V78.6108H10.1377V76.7341Z" fill="#505456"/>
<path d="M37.5185 85.0264L30.5762 78.5237V85.0264H28.334V70.2751H35.1469C38.3378 70.2751 40.4506 71.8463 40.4506 74.7267C40.4506 77.6508 38.5102 79.091 35.3194 79.091H34.112L40.7525 85.0264H37.5185ZM30.5331 77.1271H35.2763C36.9579 77.1271 38.1222 76.3852 38.1222 74.7267C38.1222 73.1119 36.9579 72.3264 35.2763 72.3264H30.5331V77.1271Z" fill="#505456"/>
<path d="M45.7109 70.2751H57.0946V72.3264H47.9532V76.0796H54.5936V78.0872H47.9532V82.8879H57.0946V84.9828H45.7109V70.2751Z" fill="#505456"/>
<path d="M67.4437 85.2C65.0721 85.2 62.6143 84.5454 60.9326 83.4543L62.14 81.665C63.6923 82.6251 65.6758 83.1488 67.5299 83.1052C69.5566 83.1052 70.9364 82.3196 70.9795 80.9667C71.0226 79.7447 70.2034 79.2646 68.0474 78.7846L66.107 78.3481C63.0024 77.6498 61.5363 76.2969 61.5363 74.1584C61.5363 71.758 63.9079 70.1433 67.0987 70.0996C69.2116 70.0996 71.2814 70.7543 72.7905 71.6708L71.6694 73.4601C70.3758 72.6745 68.9098 72.1508 67.3575 72.1945C65.374 72.1945 63.951 72.9364 63.9941 74.2457C63.9941 75.3804 64.8996 75.9478 66.7969 76.3842L68.8667 76.8643C71.9713 77.5625 73.308 78.7845 73.308 81.0103C73.308 83.498 70.8933 85.2 67.4437 85.2Z" fill="#505456"/>
<path d="M81.6301 72.37H76.542V70.2751H88.9605V72.37H83.8724V85.0264H81.6301V72.37Z" fill="#505456"/>
<path d="M98.1022 69.7068L106.295 85.0254H103.88L102.199 81.7959H94.0058L92.2811 85.0254H89.8232L98.1022 69.7068ZM101.164 79.8756L98.0591 73.9401L94.9545 79.8756H101.164Z" fill="#505456"/>
<path d="M109.098 77.9561V70.3186H111.34V77.9561C111.34 81.273 112.72 83.106 115.824 83.106C118.929 83.106 120.309 81.273 120.309 77.9998V70.3186H122.594V77.9998C122.594 82.495 120.309 85.2445 115.824 85.2445C111.34 85.2008 109.098 82.4513 109.098 77.9561Z" fill="#505456"/>
<path d="M137.557 85.0264L130.614 78.5237V85.0264H128.372V70.2751H135.185C138.376 70.2751 140.489 71.8463 140.489 74.7267C140.489 77.6508 138.548 79.091 135.357 79.091H134.15L140.791 85.0264H137.557ZM130.614 77.1271H135.357C137.039 77.1271 138.203 76.3852 138.203 74.7267C138.203 73.1119 137.039 72.3264 135.357 72.3264H130.614V77.1271Z" fill="#505456"/>
<path d="M151.398 69.7068L159.591 85.0254H157.176L155.495 81.7959H147.302L145.577 85.0254H143.119L151.398 69.7068ZM154.46 79.8756L151.355 73.9401L148.25 79.8756H154.46Z" fill="#505456"/>
<path d="M163.428 70.2751H165.67L174.639 81.7096V70.2751H176.881V85.0264H174.682L165.713 73.592V85.0264H163.471V70.2751H163.428Z" fill="#505456"/>
<path d="M186.454 72.37H181.366V70.2751H193.785V72.37H188.697V85.0264H186.454V72.37Z" fill="#505456"/>
<path d="M213.922 82.8865L213.361 83.4975C212.369 84.5013 211.162 85.1996 209.696 85.1996C206.764 85.1996 205.082 83.2793 205.082 80.879C205.082 79.657 205.686 78.5659 207.022 77.4748L207.842 76.8202C206.634 75.5109 205.988 74.769 205.988 73.5906C205.988 71.6267 207.54 70.1428 209.696 70.1428C211.981 70.1428 213.49 71.6267 213.49 73.5906C213.49 75.2054 212.671 75.9037 211.076 77.1693L213.749 79.9625L215.603 77.6058L217.026 78.9587L215.086 81.3154L217.414 83.6285L216.034 85.1996L213.922 82.8865ZM212.067 82.0573L212.585 81.4463L209.308 78.1731L208.661 78.6532C207.799 79.2205 207.195 79.9625 207.195 80.9226C207.195 82.3628 208.273 83.2793 209.739 83.2793C210.731 83.2357 211.507 82.712 212.067 82.0573ZM211.464 73.5033C211.464 72.5432 210.774 71.9322 209.739 71.9322C208.747 71.9322 208.014 72.5868 208.014 73.5033C208.014 74.3325 208.618 74.8563 209.566 75.8164C210.774 74.9872 211.464 74.5508 211.464 73.5033Z" fill="#505456"/>
<path d="M229.229 77.65C229.229 73.373 232.593 70.0562 236.991 70.0562C239.363 70.0562 241.476 71.0163 242.985 72.6747L241.26 74.0713C240.139 72.8493 238.63 72.1947 236.991 72.1947C233.886 72.1947 231.472 74.5077 231.472 77.65C231.472 80.8359 233.886 83.149 236.991 83.149C238.716 83.149 240.182 82.4944 241.303 81.2724L243.071 82.6253C241.519 84.3274 239.449 85.2875 237.034 85.2875C232.55 85.2875 229.229 81.927 229.229 77.65Z" fill="#505456"/>
<path d="M253.894 69.7068L262.087 85.0254H259.629L257.948 81.7959H249.755L248.03 85.0254H245.572L253.894 69.7068ZM256.956 79.8756L253.851 73.9401L250.747 79.8756H256.956Z" fill="#505456"/>
<path d="M265.924 70.2751H276.876V72.37H268.166V76.1233H274.375V78.1309H268.166V84.9828H265.924V70.2751Z" fill="#505456"/>
<path d="M281.146 70.2746H292.529V72.3259H283.388V76.0791H290.028V78.0867H283.388V82.8874H292.529V84.9823H281.146V70.2746ZM287.268 65.6921H289.769L288.174 68.5289H286.061L287.268 65.6921Z" fill="#505456"/>
<path d="M304.344 76.7341H309.82V78.6108H304.344V76.7341Z" fill="#505456"/>
<path d="M159.978 64.6871C166.099 64.6871 171.06 59.6654 171.06 53.4709C171.06 47.2763 166.099 42.2546 159.978 42.2546C153.858 42.2546 148.896 47.2763 148.896 53.4709C148.896 59.6654 153.858 64.6871 159.978 64.6871Z" fill="white"/>
<path d="M189.386 64.6871C195.507 64.6871 200.468 59.6654 200.468 53.4709C200.468 47.2763 195.507 42.2546 189.386 42.2546C183.266 42.2546 178.305 47.2763 178.305 53.4709C178.305 59.6654 183.266 64.6871 189.386 64.6871Z" fill="white"/>
<path d="M130.614 64.6868C136.734 64.6868 141.696 59.6652 141.696 53.4706C141.696 47.2761 136.734 42.2544 130.614 42.2544C124.494 42.2544 119.532 47.2761 119.532 53.4706C119.532 59.6652 124.494 64.6868 130.614 64.6868Z" fill="white"/>
<path d="M159.979 43.0833C154.33 43.0833 149.716 47.7094 149.716 53.4703C149.716 57.66 152.174 61.2823 155.753 62.9408L155.882 60.1476C155.925 59.6239 155.667 59.1002 155.235 58.7947L154.761 58.4019C154.546 58.2273 154.373 57.9218 154.373 57.66V53.3393C154.373 51.2008 154.675 49.3678 155.408 47.6658C155.968 46.3565 156.529 45.7018 156.874 45.309C157.046 45.0908 157.391 45.2218 157.391 45.5273C157.391 47.9276 157.348 56.0452 157.391 59.0566C157.391 60.0167 157.478 62.0243 157.521 63.6391C158.297 63.8136 159.116 63.9446 159.935 63.9446C160.539 63.9446 161.143 63.9009 161.703 63.77L162.048 57.1363C160.712 56.7871 159.806 55.5215 159.935 54.1249L160.539 47.7967C160.539 47.6221 160.712 47.4912 160.841 47.4912C161.013 47.4912 161.143 47.6221 161.143 47.7967V53.9067C161.143 54.0813 161.272 54.2122 161.445 54.2122C161.617 54.2122 161.747 54.0813 161.747 53.9067V47.7967C161.747 47.6221 161.876 47.4912 162.048 47.4912H162.091C162.264 47.4912 162.393 47.6221 162.393 47.7967V53.9067C162.393 54.0813 162.523 54.2122 162.695 54.2122C162.868 54.2122 162.997 54.0813 162.997 53.9067V47.7967C162.997 47.6221 163.126 47.4912 163.299 47.4912H163.342C163.514 47.4912 163.644 47.6221 163.644 47.7967V53.9067C163.644 54.0813 163.773 54.2122 163.946 54.2122C164.118 54.2122 164.247 54.0813 164.247 53.9067V47.7967C164.247 47.6221 164.377 47.4912 164.549 47.4912C164.722 47.4912 164.851 47.6221 164.851 47.7967L165.455 54.0376C165.584 55.4778 164.679 56.8308 163.342 57.1363L163.644 63.2026C167.438 61.6751 170.112 57.9218 170.112 53.5575C170.241 47.753 165.67 43.0833 159.979 43.0833ZM183.953 50.9826L185.721 60.6713H193.051L194.819 50.9826H183.953ZM185.98 60.3658L184.772 53.6885H192.62L191.413 60.3658H185.98ZM192.793 60.3658H192.189L193.396 53.6885H194L192.793 60.3658ZM189.386 43.0833C183.738 43.0833 179.124 47.7094 179.124 53.4703C179.124 57.5727 181.452 61.1078 184.859 62.8098C184.859 62.7662 184.859 62.7662 184.859 62.7226L183.35 50.8953C183.306 50.6771 183.479 50.4589 183.738 50.4589H195.035C195.251 50.4589 195.423 50.6771 195.423 50.8953L193.914 62.7226C193.914 62.7662 193.914 62.7662 193.914 62.8098C197.32 61.1078 199.649 57.5727 199.649 53.4703C199.649 47.753 195.035 43.0833 189.386 43.0833ZM125.483 55.0414C125.483 54.9978 125.44 54.9978 125.483 55.0414C125.44 54.9978 125.44 55.0414 125.44 55.0414C125.397 57.529 126.302 60.2349 128.415 61.6751H128.458V61.6315C126.863 59.6676 126.173 57.3981 125.483 55.0414ZM137.858 56.0452C137.427 55.6524 136.608 55.7397 135.918 55.9143C135.832 57.2235 135.487 58.4892 135.012 59.5366C136.521 58.9256 137.599 57.7473 137.901 56.8308C137.988 56.6562 138.074 56.2634 137.858 56.0452ZM130.614 43.0833C124.965 43.0833 120.352 47.7094 120.352 53.4703C120.352 57.4418 122.551 60.8459 125.742 62.5916H127.423C125.44 61.2387 124.017 58.3583 124.017 54.9978C124.017 54.8232 124.017 54.6486 124.017 54.5177C124.017 54.0813 124.405 53.6885 124.836 53.6885H135.012C135.443 53.6885 135.832 54.0376 135.832 54.5177C135.832 54.605 135.832 54.6923 135.832 54.7796C136.694 54.5613 137.729 54.5613 138.462 55.216C138.979 55.6524 139.109 56.3943 138.807 57.2235C138.289 58.7947 136.435 60.4531 134.107 60.8896C133.632 61.5878 133.072 62.1552 132.425 62.548H135.357C138.548 60.8023 140.747 57.3545 140.747 53.4266C140.877 47.753 136.263 43.0833 130.614 43.0833ZM130.528 51.0699C130.485 51.2881 130.442 51.5063 130.355 51.7245C130.269 51.8991 130.183 52.0737 130.054 52.2483C129.967 52.3792 129.838 52.5101 129.709 52.641L129.622 52.6847C129.579 52.7283 129.536 52.772 129.493 52.8156L129.407 52.8593C129.407 52.8593 129.364 52.8593 129.364 52.9029L129.407 52.7283C129.45 52.5974 129.493 52.5101 129.536 52.3792V52.3355C129.579 52.2046 129.622 52.03 129.665 51.8991C129.709 51.7245 129.752 51.55 129.752 51.419C129.752 51.2445 129.795 51.1135 129.752 50.9826C129.752 50.8517 129.709 50.7644 129.665 50.6335C129.622 50.5025 129.536 50.4153 129.493 50.2843C129.407 50.197 129.32 50.0661 129.234 49.9352C129.191 49.8479 129.105 49.8043 129.062 49.717L128.846 49.4988C128.803 49.4551 128.76 49.4115 128.717 49.3678C128.674 49.3242 128.631 49.2805 128.587 49.1933C128.544 49.1496 128.544 49.106 128.501 49.0187C128.372 48.8005 128.329 48.5386 128.329 48.2768C128.329 48.0585 128.329 47.7967 128.415 47.5785C128.501 47.1857 128.674 46.8365 128.932 46.4874C129.019 46.4001 129.105 46.2692 129.148 46.1819C129.105 46.3565 129.062 46.531 129.062 46.662C129.019 46.8365 128.976 47.0984 128.976 47.0984V47.142C128.976 47.1857 128.976 47.2293 128.976 47.273C128.976 47.4475 128.932 47.6658 128.976 47.884C128.976 47.9276 128.976 47.9713 129.019 48.0149V48.0585C129.105 48.3204 129.234 48.5823 129.493 48.9314C130.226 49.8479 130.442 50.197 130.442 50.7208C130.528 50.939 130.528 51.0263 130.528 51.0699ZM131.994 50.1098C131.951 50.3716 131.908 50.6771 131.821 50.939C131.735 51.1572 131.649 51.3754 131.52 51.5936C131.433 51.7682 131.304 51.9428 131.175 52.0737L131.088 52.161C131.045 52.2046 131.002 52.2483 130.959 52.2919L130.873 52.3355L130.83 52.3792L130.873 52.161C130.916 52.03 130.959 51.8555 131.002 51.7245V51.6373C131.045 51.4627 131.088 51.2881 131.132 51.1135C131.175 50.8953 131.218 50.7208 131.218 50.5025C131.218 50.328 131.261 50.1534 131.218 49.9788C131.218 49.8479 131.175 49.717 131.132 49.586C131.088 49.4551 131.002 49.3242 130.959 49.1933C130.873 49.0623 130.787 48.9314 130.7 48.7568C130.657 48.6695 130.571 48.5823 130.528 48.495L130.312 48.1895C130.269 48.1458 130.226 48.0585 130.183 48.0149C130.14 47.9713 130.097 47.884 130.054 47.8403C130.01 47.7967 130.01 47.7094 129.967 47.6221C129.838 47.3603 129.795 47.0111 129.795 46.7056C129.795 46.4438 129.795 46.1383 129.881 45.8328C129.967 45.3527 130.14 44.9599 130.398 44.5235C130.485 44.3925 130.571 44.2616 130.614 44.1743C130.571 44.3925 130.528 44.5671 130.528 44.7853C130.485 45.0035 130.442 45.3527 130.442 45.3527V45.3963C130.442 45.44 130.442 45.5273 130.442 45.5709C130.442 45.7891 130.398 46.051 130.442 46.3128C130.442 46.3565 130.442 46.4001 130.485 46.4874V46.531C130.571 46.8365 130.7 47.1857 130.959 47.6221C131.692 48.7132 131.908 49.1933 131.908 49.8479C131.994 49.9788 131.994 50.0661 131.994 50.1098Z" fill="#7E1710"/>
</g>
<defs>
<clipPath id="clip0_64_263">
<rect width="320" height="100" fill="white"/>
</clipPath>
</defs>
</svg>