<svg width="16" height="15" viewBox="0 0 16 15" fill="none" xmlns="http://www.w3.org/2000/svg">
<path d="M11.0398 2.7749C8.89747 1.19825 8.0579 0 8.0579 0C8.0579 0 5.5971 2.5857 3.72979 3.52684C1.86731 4.46313 0 5.28784 0 5.28784C0 5.28784 1.3076 8.51391 3.24246 10.7988C4.92642 12.7878 8.13028 15 8.13028 15C8.13028 15 11.1122 13.3118 13.5392 9.82374C15.9614 6.3357 16 5.21022 16 5.21022C16 5.21022 12.9795 4.19631 11.0398 2.7749ZM7.53679 12.0941C7.26176 11.871 6.8661 11.5362 6.30639 11.0268C6.18577 10.9201 6.06996 10.7988 5.95416 10.6776L7.53679 9.42594V12.0941ZM7.53679 8.34411C7.27141 8.58182 6.89505 8.87775 6.41737 9.18823C5.90109 9.52296 5.5392 9.73642 5.27865 9.8674C5.03257 9.53752 4.80097 9.19793 4.59349 8.86805L7.53679 6.77232V8.34411ZM7.53679 5.74871C7.40651 5.83603 7.25694 5.94276 7.08806 6.07859C6.54765 6.5152 5.00362 7.36416 3.99517 7.85414C3.68637 7.2914 3.50784 6.9033 3.50784 6.9033C3.50784 6.9033 3.95657 6.56371 5.03739 5.96701C5.75633 5.56921 6.87093 4.65718 7.53679 4.08959V5.75356V5.74871ZM8.39566 12.2979V9.31436L10.0555 10.6242C9.4041 11.3761 8.74789 11.9874 8.39566 12.2979ZM11.339 8.84864C11.1508 9.18338 10.9288 9.51326 10.6924 9.82859C10.4463 9.69276 10.1279 9.49871 9.69843 9.22219C9.10012 8.83409 8.66104 8.46054 8.39083 8.20828V6.67529L11.3679 8.79528C11.3583 8.81468 11.3486 8.82924 11.339 8.84864ZM11.9276 7.79592C10.9288 7.29625 9.5392 6.5249 9.02774 6.11255C8.77684 5.9088 8.56454 5.76811 8.39566 5.67109V4.06048C8.57901 4.28363 8.86369 4.58926 9.3269 4.99191C10.4463 5.96701 12.386 6.86449 12.386 6.86449C12.386 6.86449 12.4053 6.90815 11.9276 7.79592Z" fill="#E31F21"/>
</svg>
