<svg width="25" height="24" viewBox="0 0 25 24" fill="none" xmlns="http://www.w3.org/2000/svg">
<path fill-rule="evenodd" clip-rule="evenodd" d="M13 1C10.8244 1 8.69767 1.64514 6.88873 2.85383C5.07979 4.06253 3.66989 5.78049 2.83733 7.79048C2.00477 9.80047 1.78693 12.0122 2.21137 14.146C2.6358 16.2798 3.68345 18.2398 5.22183 19.7782C6.76021 21.3165 8.72022 22.3642 10.854 22.7886C12.9878 23.2131 15.1995 22.9952 17.2095 22.1627C19.2195 21.3301 20.9375 19.9202 22.1462 18.1113C23.3549 16.3023 24 14.1756 24 12C24 10.5555 23.7155 9.12506 23.1627 7.79048C22.6099 6.4559 21.7996 5.24327 20.7782 4.22182C19.7567 3.20038 18.5441 2.39013 17.2095 1.83732C15.8749 1.28452 14.4445 1 13 1ZM16.883 15.883C16.8066 15.9598 16.7157 16.0207 16.6157 16.0622C16.5156 16.1038 16.4083 16.1252 16.3 16.1252C16.1917 16.1252 16.0844 16.1038 15.9844 16.0622C15.8843 16.0207 15.7935 15.9598 15.717 15.883L12.417 12.583C12.3402 12.5066 12.2793 12.4157 12.2378 12.3157C12.1963 12.2156 12.1749 12.1083 12.175 12V6.5C12.175 6.28119 12.2619 6.07135 12.4166 5.91664C12.5714 5.76192 12.7812 5.675 13 5.675C13.2188 5.675 13.4286 5.76192 13.5834 5.91664C13.7381 6.07135 13.825 6.28119 13.825 6.5V11.6579L16.883 14.717C16.9596 14.7935 17.0204 14.8844 17.0619 14.9844C17.1034 15.0845 17.1247 15.1917 17.1247 15.3C17.1247 15.4083 17.1034 15.5155 17.0619 15.6156C17.0204 15.7156 16.9596 15.8065 16.883 15.883Z" fill="#23A5B3"/>
</svg>