<svg width="25" height="24" viewBox="0 0 25 24" fill="none" xmlns="http://www.w3.org/2000/svg">
<path fill-rule="evenodd" clip-rule="evenodd" d="M23.264 20.3513C23.1179 20.4969 22.9418 20.6831 22.755 20.8801C22.2889 21.3748 21.7066 21.9898 21.3416 22.2392C19.4215 23.5513 16.8526 22.9235 15.0355 22.1663C12.6384 21.1675 10.0286 19.3265 7.68534 16.9827C5.33987 14.6389 3.49909 12.0282 2.50032 9.63232C1.74411 7.81473 1.11494 5.24518 2.42728 3.32446C2.67649 2.95922 3.29285 2.3778 3.78688 1.91077C3.98452 1.72454 4.16928 1.54859 4.31537 1.40296C4.57473 1.14488 4.92572 1 5.2916 1C5.65747 1 6.00846 1.14488 6.26782 1.40296L9.80089 4.9352C10.0588 5.19456 10.2036 5.54547 10.2036 5.91126C10.2036 6.27705 10.0588 6.62797 9.80089 6.88733L8.83844 7.8479C8.51701 8.16699 8.30721 8.58135 8.24025 9.02931C8.17329 9.47726 8.25275 9.93486 8.46682 10.334C9.79062 12.8327 11.8343 14.8761 14.3331 16.1996C14.7321 16.4136 15.1896 16.493 15.6374 16.4259C16.0852 16.3588 16.4994 16.1489 16.8182 15.8274L17.7783 14.8667C18.0376 14.6087 18.3886 14.4638 18.7545 14.4638C19.1204 14.4638 19.4714 14.6087 19.7307 14.8667L23.264 18.3996C23.522 18.6588 23.6667 19.0097 23.6667 19.3754C23.6667 19.7411 23.522 20.092 23.264 20.3513Z" fill="#23A5B3"/>
</svg>